<svg width="1152" height="34" viewBox="0 0 1152 34" fill="none" xmlns="http://www.w3.org/2000/svg">
<path fill-rule="evenodd" clip-rule="evenodd" d="M125.619 10.6465C51.2098 20.5597 10.8692 12.8436 0 7.74638V33.3202L374.44 33.3202L399.843 33.3202L751.003 33.3202C751.104 33.6141 751.159 33.7734 751.159 33.7734H1151V15.318C1087.93 -6.3011 969.957 0.0382195 876.778 11.0997C816.515 18.2536 766.863 10.7409 750.355 8.2432C748.609 7.97905 747.234 7.77099 746.256 7.64231C680.131 -4.97633 580.791 1.0627 500.059 10.6465C439.796 17.8005 390.144 10.2877 373.636 7.79004L373.636 7.78997C372.328 7.59214 371.229 7.42577 370.348 7.30065C304.196 -5.20776 205.615 -0.0109574 125.619 10.6465Z" fill="#F9F5EF"/>
</svg>
