<svg width="19" height="21" viewBox="0 0 19 21" fill="none" xmlns="http://www.w3.org/2000/svg">
<path fill-rule="evenodd" clip-rule="evenodd" d="M18.6667 19.3996C18.6667 20.0255 18.2055 20.5333 17.6365 20.5333H12.8797V12.5816H15.3061L15.6697 9.48307H12.8797V7.50424C12.8797 6.60711 13.1065 5.99579 14.276 5.99579L15.7678 5.99523V3.22329C15.5095 3.18582 14.6243 3.10137 13.5941 3.10137C11.4433 3.10137 9.97071 4.5455 9.97071 7.19774V9.48307H7.53816V12.5816H9.97071V20.5333H1.03017C0.461188 20.5333 0 20.0255 0 19.3996V1.13372C0 0.507293 0.461188 0 1.03017 0H17.6365C18.2055 0 18.6667 0.507293 18.6667 1.13372V19.3996Z" fill="#E42525"/>
</svg>
