<svg width="20" height="22" viewBox="0 0 20 22" fill="none" xmlns="http://www.w3.org/2000/svg">
<path fill-rule="evenodd" clip-rule="evenodd" d="M10.0006 0C4.47816 0 0 4.92468 0 11.0006C0 15.5036 2.46252 19.374 5.98695 21.0751C5.95872 20.308 5.98224 19.3844 6.15982 18.5487C6.35268 17.6561 7.44635 12.5555 7.44635 12.5555C7.44635 12.5555 7.12765 11.8531 7.12765 10.8144C7.12765 9.18445 7.9873 7.96719 9.05627 7.96719C9.96531 7.96719 10.4051 8.71876 10.4051 9.6191C10.4051 10.6242 9.82184 12.1287 9.52196 13.5218C9.27148 14.69 10.0535 15.6407 11.1001 15.6407C12.9946 15.6407 14.2706 12.9643 14.2706 9.79244C14.2706 7.38249 12.7947 5.57794 10.11 5.57794C7.07709 5.57794 5.18728 8.0655 5.18728 10.8441C5.18728 11.804 5.44364 12.4792 5.84583 13.0018C6.03163 13.2437 6.05633 13.3394 5.9893 13.6163C5.94226 13.8168 5.83172 14.3058 5.78585 14.4985C5.71882 14.7766 5.5142 14.8775 5.28606 14.774C3.88781 14.1466 3.23749 12.4637 3.23749 10.5712C3.23749 7.44717 5.63297 3.69836 10.384 3.69836C14.2024 3.69836 16.7155 6.73958 16.7155 10.0007C16.7155 14.3161 14.5352 17.5397 11.3189 17.5397C10.2405 17.5397 9.22444 16.8981 8.87634 16.1698C8.87634 16.1698 8.29541 18.7039 8.17311 19.1929C7.96143 20.0402 7.5463 20.8888 7.16646 21.5485C8.06609 21.8409 9.01629 22 10.0006 22C15.523 22 20 17.0753 20 11.0006C20 4.92468 15.523 0 10.0006 0Z" fill="#E42525"/>
</svg>
