<svg width="596" height="500" viewBox="0 0 596 500" fill="none" xmlns="http://www.w3.org/2000/svg">
<path opacity="0.2" d="M495.114 499.082C493.963 499.364 492.812 498.799 491.949 499.647C491.085 500.212 490.222 499.929 489.071 499.929C486.482 500.212 494.826 495.691 493.675 496.256C494.538 495.974 493.675 494.279 494.826 494.844C495.114 495.126 510.363 485.52 508.924 484.954C502.019 483.259 477.275 485.237 469.794 489.193C468.931 489.758 467.492 487.215 467.78 489.758C467.78 490.605 459.148 492.301 462.026 492.301C484.756 492.583 448.503 494.561 448.215 494.561C447.639 493.713 447.639 497.669 443.899 495.126C444.187 495.409 443.899 495.126 443.899 494.844C441.885 491.453 412.25 495.126 407.934 495.126C401.316 495.126 400.453 492.583 399.015 493.996C393.548 492.866 397.864 490.323 393.548 492.866C392.397 493.713 392.109 492.018 390.671 490.323C388.944 488.345 390.958 487.497 388.944 485.802C388.657 485.52 388.369 484.954 388.081 484.672C387.793 483.259 386.355 483.259 385.492 482.977C384.341 482.412 384.916 482.977 382.614 485.52C381.463 486.932 383.765 487.497 383.765 487.78C383.19 488.91 382.902 487.78 380.888 490.323C379.737 492.018 378.586 490.04 378.586 489.758C378.586 489.193 380.313 488.91 376.285 486.65C375.709 486.367 365.927 489.193 365.639 488.91C364.776 488.345 363.912 488.345 363.049 488.91C364.776 491.453 365.351 490.888 366.502 491.736C364.488 492.583 362.186 494.278 361.898 491.736C361.611 490.04 361.611 487.78 359.597 488.91C358.158 489.758 360.172 486.367 356.432 485.237C355.569 484.955 354.13 482.977 356.144 481.281C357.295 480.151 357.295 482.977 360.748 482.694C361.611 482.694 365.639 487.78 367.077 486.367C367.941 485.52 368.804 486.085 369.667 486.367C370.818 486.65 372.256 486.367 370.53 484.954C369.667 484.107 369.667 483.542 370.242 482.412C373.12 477.326 355.856 480.999 352.691 479.021C351.253 477.891 348.663 481.564 345.786 478.456C340.607 472.805 305.793 492.018 289.68 491.17C281.336 490.605 271.266 493.713 264.361 488.628C241.631 472.24 233.287 432.684 230.697 432.401C228.971 432.119 233.575 429.011 231.273 427.033C230.985 426.75 229.259 429.858 228.971 430.423C227.532 433.814 201.925 458.96 201.637 459.243C200.199 461.221 192.43 464.894 191.855 466.872C191.567 468.002 190.416 468.849 188.978 469.415C186.676 470.262 185.813 473.088 184.662 473.653C178.332 478.456 158.767 483.259 158.767 483.259C145.819 483.824 148.984 481.281 145.244 477.891C144.381 477.043 143.518 479.304 142.367 478.456C140.065 477.043 137.476 478.173 137.188 474.783C139.49 475.63 139.202 476.196 140.353 475.065C140.641 474.783 141.216 474.5 140.641 473.935C140.353 473.653 139.777 472.523 139.202 473.088C132.872 478.173 134.023 468.002 130.283 466.872C129.132 466.589 128.268 465.741 127.693 464.894C126.254 461.221 117.335 460.091 117.047 460.373C116.184 460.656 116.184 460.373 114.746 457.83C109.279 448.506 107.84 446.811 110.43 446.246C110.717 446.246 112.444 443.703 111.293 442.573C108.703 439.747 107.84 440.595 107.84 438.9C108.128 437.204 106.689 436.922 107.265 434.944C109.854 436.074 108.416 436.074 107.84 429.576C107.553 427.315 105.826 435.509 103.812 432.966C101.223 429.858 102.661 425.338 101.51 426.468C92.8787 434.379 100.359 412.34 87.6997 432.119C87.1243 433.249 85.3979 432.119 85.1102 431.271C84.5348 428.728 78.7803 427.033 75.3277 424.207C73.6014 422.795 74.4645 422.23 73.0259 422.795C69.5732 424.207 65.8329 422.512 61.8048 422.23C50.5836 421.947 36.4853 411.493 36.773 410.363C36.773 408.95 33.0326 405.842 34.7589 410.645C35.6221 412.623 30.4431 412.058 29.2922 409.515C26.7027 403.582 16.3448 402.169 15.7693 401.604C7.42538 404.147 20.3729 402.734 17.4956 405.277C17.2079 405.559 16.3448 405.277 16.9202 406.125C18.3588 405.842 17.7834 408.102 19.222 408.102C20.6606 408.385 19.7974 408.95 19.222 410.08C18.6465 412.058 17.2079 407.82 13.7553 406.972C12.8921 403.582 7.13766 403.864 10.0149 400.756C10.5903 399.908 10.3026 399.908 9.15171 398.496C7.42538 396.8 17.2079 400.191 17.2079 398.496C16.9202 397.083 11.4535 397.083 13.4675 395.953C16.6325 393.975 18.3588 393.41 17.2079 393.127C16.057 392.845 15.4816 391.997 14.043 391.997C7.13766 392.845 11.7412 389.172 8.28855 389.172C7.42538 389.172 5.98677 389.172 5.98677 388.042C5.98677 386.629 9.15171 387.477 11.4535 386.629C12.0289 386.346 12.8921 387.759 13.4675 386.629C14.043 385.781 12.6044 384.368 11.7412 384.368C10.3026 384.086 8.28855 384.934 6.56222 382.391C3.97272 379 2.24639 385.499 1.09551 384.651C-1.49399 382.391 1.09551 380.695 2.82184 379C3.97272 377.87 2.82184 378.153 1.38323 376.74C0.232341 375.61 2.24639 375.327 3.685 374.197C4.26044 373.632 5.41133 371.654 3.97272 371.089C1.95867 370.524 2.24639 368.263 3.685 368.263C6.84994 368.263 7.42538 368.546 7.42538 367.416C7.7131 364.873 -2.64488 368.546 2.24639 363.178C3.10956 362.047 1.38323 360.07 3.685 359.505C5.69905 358.94 14.9061 344.247 22.3869 333.228C89.7138 236.315 287.091 41.3591 343.484 6.32349C348.951 2.93295 360.172 -5.82594 361.323 -5.82594C362.762 -5.82594 360.172 -7.23866 365.351 -10.6292C365.639 -10.9117 381.464 -21.3659 381.751 -21.6484C425.485 -50.468 420.018 -43.6869 421.169 -47.0775C422.032 -49.9029 422.895 -46.7949 426.636 -49.0553C432.966 -52.4458 439.871 -60.0745 440.159 -56.684C440.159 -55.2713 444.475 -58.9444 447.352 -60.3571C448.215 -60.6396 448.503 -61.7698 449.078 -62.6174C450.517 -64.8778 449.941 -62.9 457.422 -64.8778C463.176 -66.5731 460.587 -69.3985 464.327 -71.0938C543.163 -103.304 545.753 -82.113 554.096 -82.6781C556.398 -82.9607 549.493 -82.3956 559.563 -75.6145C560.714 -74.7669 561.865 -76.4621 556.398 -80.7003C554.96 -81.8305 557.837 -82.6781 561.289 -80.4178C562.44 -79.5701 565.605 -82.113 568.77 -79.8527C569.633 -79.2876 576.251 -77.8749 577.977 -73.3542C578.841 -71.0938 588.048 -67.7033 590.349 -60.3571C590.925 -58.9444 598.406 -54.4236 596.392 -49.9029C594.378 -45.6648 595.816 -43.9695 593.802 -45.6648C592.651 -44.8171 590.925 -44.5346 590.349 -42.8393C590.062 -41.7091 582.005 -31.8201 582.005 -31.8201C580.567 -30.4073 579.128 -31.255 578.841 -29.2772C578.265 -20.5183 559.563 -20.8008 595.241 -21.3659C631.494 -21.931 644.729 7.73622 646.455 9.43149C651.922 14.2348 651.922 28.9271 653.073 30.3398C660.266 38.2511 648.181 81.763 645.592 83.7408C644.441 84.5884 651.059 88.5441 653.648 93.6299C655.662 97.5855 651.059 97.868 651.059 102.671C651.059 104.367 649.908 103.519 647.318 108.605C640.701 121.319 637.823 118.494 636.385 121.319C634.946 124.427 632.357 125.557 631.781 125.557C630.918 125.557 626.89 127.818 626.89 128.1C625.164 131.491 620.56 133.186 618.546 135.447C614.806 139.402 611.065 133.186 604.736 144.488C592.363 166.809 374.846 334.358 362.762 358.374C356.719 370.241 482.454 275.024 571.648 225.578C601.571 208.908 621.711 200.149 651.346 200.432C652.21 201.845 661.992 200.432 664.582 202.127C670.336 201.562 677.241 208.061 682.708 205.235C684.722 204.387 682.42 206.93 683.859 206.93C690.764 207.213 690.764 206.93 689.901 205.8C687.599 202.41 714.645 209.191 717.522 215.689C719.249 219.08 725.003 218.232 725.291 217.667C725.866 215.972 729.607 219.362 732.772 220.775C734.498 221.623 732.484 221.34 739.677 228.404C744.28 232.924 738.814 236.88 741.691 234.902C742.266 234.62 742.554 232.924 744.281 234.902C745.431 236.598 745.431 233.207 748.884 234.62C752.912 236.032 750.035 239.423 751.761 240.271C755.502 241.966 750.898 244.509 753.2 245.074C754.926 245.639 752.912 249.312 751.474 251.007C751.761 251.572 761.831 258.636 746.582 269.655C742.266 272.763 748.884 273.611 746.87 276.436C745.431 278.697 747.733 279.262 746.87 280.109C745.431 281.805 743.417 282.935 742.554 284.913C742.266 285.195 741.691 285.478 741.403 285.76C731.908 291.411 740.252 287.738 728.456 306.104C728.168 306.669 728.168 307.799 727.88 308.364C727.305 308.929 724.14 311.189 724.428 312.885C724.428 313.45 723.565 314.297 722.701 314.58C718.961 315.993 720.112 319.666 713.207 326.164C693.354 345.095 707.164 335.488 709.754 336.901C710.617 337.466 679.543 364.59 676.954 364.025C676.378 364.025 658.827 380.978 663.718 378.153C689.326 362.895 678.968 366.568 690.764 362.33C701.122 358.657 691.052 366.286 681.845 372.784C681.557 373.067 635.809 413.471 635.522 414.601C634.946 416.014 634.371 414.318 633.795 414.883C632.357 416.296 630.055 418.556 628.329 419.404C622.574 423.077 615.669 435.227 615.381 435.227C612.792 436.074 612.216 438.052 611.065 440.03C610.778 440.312 611.065 441.16 610.49 440.595C609.339 439.747 613.079 433.814 611.641 432.684C610.778 432.119 604.735 446.528 604.16 447.094C603.585 447.941 602.721 446.246 602.146 446.528C597.542 449.636 600.707 451.049 598.406 452.462C596.967 453.309 597.542 449.071 597.83 448.789C598.118 448.224 597.542 443.42 596.679 444.833C592.651 452.179 594.665 458.113 592.076 456.417C590.925 455.57 588.911 456.135 588.048 454.44C586.609 451.614 588.048 461.503 573.949 459.525C573.086 459.525 575.1 457.83 573.662 457.83C568.77 457.548 565.318 463.764 562.728 463.481C559.563 462.916 556.686 464.329 554.384 466.024C547.479 470.827 542.3 471.392 544.602 473.653C542.875 474.218 525.612 487.78 523.886 487.215C522.447 486.65 531.654 480.151 533.381 479.586C538.272 477.608 536.545 474.218 551.507 463.764C551.795 462.351 558.412 460.373 555.535 459.808C552.946 459.243 530.503 473.37 529.928 473.935C528.777 474.783 529.928 476.761 528.777 476.761C523.598 475.631 498.854 499.082 495.114 499.082ZM596.392 228.969C599.557 229.534 603.872 226.991 603.872 226.426C603.585 224.731 589.774 231.229 590.062 231.512C590.925 232.924 595.241 230.099 596.392 228.969ZM122.802 224.448C129.132 221.34 127.405 216.537 125.391 218.797C124.528 219.645 125.104 220.492 124.528 221.34C120.788 226.991 117.623 226.143 119.061 228.686C119.637 229.534 119.349 228.969 122.226 226.143C122.802 225.578 122.802 225.013 122.802 224.448ZM541.437 390.302C537.696 389.737 534.531 393.127 534.819 394.54C535.107 394.823 540.286 392.845 541.437 390.302C541.724 390.019 548.917 386.064 542.3 388.324C541.149 388.607 541.437 389.454 541.437 390.302ZM135.749 240.836V241.118C137.188 242.814 132.872 242.248 133.447 245.074C134.023 248.182 195.883 175.85 201.637 175.85C207.68 170.199 203.076 171.047 208.831 165.114C216.311 157.202 209.406 168.787 210.269 169.352C210.557 169.352 340.607 41.9241 375.709 24.4064C375.997 24.4064 404.481 4.91077 404.481 3.49805C404.769 0.107506 408.222 -2.43539 408.509 -3.56557C408.797 -7.5212 414.264 -4.69576 416.278 -10.0641C416.566 -10.6292 421.169 -14.5848 422.032 -14.5848C426.06 -14.3023 441.885 -23.6263 442.173 -25.6041C442.461 -30.4073 517.556 -64.8778 526.188 -64.0302C527.338 -64.0302 526.188 -65.1604 525.9 -65.7254C525.612 -66.2905 509.5 -62.9 508.924 -62.3349C508.061 -61.4873 507.486 -63.7476 506.047 -62.3349C505.472 -61.7698 485.331 -56.4015 478.713 -51.8807C477.563 -51.0331 473.822 -49.9029 473.534 -49.9029C472.959 -49.9029 463.464 -44.252 463.176 -45.9473C462.889 -47.6426 467.492 -47.36 468.931 -49.3378C472.096 -53.2935 494.538 -59.2269 496.552 -61.7698C492.812 -63.4651 485.043 -58.6618 485.331 -57.2491C480.152 -57.8142 480.727 -55.2713 477.275 -55.2713C476.412 -54.1411 474.685 -54.9887 473.822 -53.8586C473.247 -53.2935 472.959 -52.7284 472.384 -52.7284C462.889 -51.3157 466.629 -49.6204 457.71 -46.7949C456.271 -46.2298 457.134 -45.9473 457.422 -45.3822C457.422 -45.0997 456.847 -44.5346 456.847 -44.252C457.134 -43.6869 458.285 -43.1219 460.299 -45.3822C460.875 -45.9473 461.162 -45.3822 462.026 -44.5346C462.313 -44.252 459.148 -43.1219 456.559 -41.7091C455.408 -41.144 455.696 -42.8393 455.696 -44.5346C455.696 -47.9251 441.885 -38.036 439.871 -37.471C438.72 -37.1884 440.734 -35.7757 441.31 -36.0582C455.983 -44.5346 451.668 -41.144 453.682 -42.5568C454.257 -42.8393 454.257 -43.9695 454.545 -43.6869C457.997 -41.7091 444.762 -34.9281 441.022 -33.5153C440.159 -33.2328 440.446 -31.5375 439.008 -31.8201C436.994 -32.1026 428.65 -25.6041 426.348 -26.1692C422.32 -27.0168 431.239 -28.7121 430.376 -31.255C428.65 -35.7757 348.951 19.8857 350.965 16.4951C364.2 -3.00048 340.895 22.4286 338.018 19.3206C338.881 15.93 345.211 14.5173 352.404 7.45367C353.555 6.32349 355.856 7.45367 354.993 5.19332C353.842 2.65041 356.144 6.88859 360.172 -0.457581C360.46 -1.02267 359.309 -4.69575 355.281 0.955147C354.993 1.23769 332.551 14.2348 329.098 20.7333C326.221 18.7555 318.74 28.9271 318.452 29.2096C317.589 30.0573 315.863 29.4922 313.561 31.7525C308.67 36.2732 287.379 52.9434 286.515 55.2038C286.228 55.7688 285.652 56.6165 284.789 56.899C278.459 59.4419 198.473 138.837 198.185 139.12C182.36 153.812 185.813 155.79 182.36 157.485C179.483 158.898 179.771 163.984 181.497 162.288C192.718 150.421 198.473 145.053 209.118 134.316C211.708 131.773 210.557 134.599 211.42 134.881C213.722 135.164 211.708 136.012 212.283 137.424C212.571 137.989 215.16 136.577 215.736 135.447C216.311 134.599 216.599 133.469 217.174 132.621C217.75 131.773 218.901 131.491 219.764 130.643C222.066 128.665 222.353 126.122 226.094 123.862C226.382 123.58 243.069 110.3 240.192 107.475C239.904 107.192 239.904 107.192 241.343 104.649C242.494 102.389 241.919 102.954 243.069 104.649C243.645 105.497 243.357 105.779 241.919 106.909C239.041 109.452 248.824 105.497 252.276 96.4553C252.852 95.0426 253.427 96.1728 255.729 94.4775C258.606 92.2171 258.606 92.7822 259.182 93.3473C261.196 95.3251 234.15 120.189 233.862 121.037C233.575 122.167 232.424 123.297 231.273 123.862C223.504 126.97 102.086 263.157 101.798 263.157C96.3314 267.112 129.419 224.448 129.419 224.448C130.283 224.448 131.146 224.448 131.721 224.166C132.872 223.6 132.009 222.47 132.872 221.623C133.447 221.34 134.311 221.623 134.311 220.21C134.598 213.711 144.381 210.886 141.791 207.778C138.914 204.387 157.904 189.13 159.918 184.609C160.493 183.197 163.946 182.914 161.644 185.739C154.163 194.216 168.837 183.762 162.22 183.762C163.658 180.654 177.181 166.244 178.62 163.984C179.771 162.288 174.592 163.984 172.865 168.504C172.578 169.634 172.29 168.222 169.7 171.895L169.413 172.177C167.974 171.047 141.216 203.257 139.49 204.67C138.339 205.518 137.763 206.648 138.051 208.061C139.777 213.994 75.3277 278.697 87.1243 278.697C92.3033 278.697 76.4786 291.129 76.4786 295.649C74.4645 295.367 74.7522 296.78 74.1768 297.345C73.6014 296.78 72.7382 293.389 75.6154 292.541C76.1908 292.259 77.6295 289.151 78.4926 287.738C79.6435 285.478 74.7522 286.043 74.7522 288.586C74.7522 292.259 72.7382 290.846 71.5873 295.649C70.7241 299.888 68.1346 298.192 69.2855 299.605C70.7241 301.018 67.2715 299.888 66.696 301.583C66.4083 302.713 66.9838 300.735 63.2434 306.951C62.9557 307.799 63.8188 308.081 63.5311 308.647C50.8713 332.098 73.8891 302.431 75.04 299.04C77.054 293.389 160.206 200.714 160.493 199.584C161.069 197.889 162.507 201.562 159.342 203.822C159.055 204.105 139.202 232.359 138.051 233.49C136.612 234.902 134.886 235.467 133.735 237.163C133.16 238.01 135.749 238.293 136.037 237.445C137.188 234.337 139.49 235.467 140.928 232.642C143.23 227.839 149.848 224.448 151.862 220.492C152.149 219.927 152.725 219.362 153.3 219.08C155.314 218.232 154.739 216.537 156.177 216.254C157.904 215.972 157.904 215.407 161.069 209.756C163.083 209.191 164.521 206.365 165.097 206.93C167.111 208.343 155.027 221.058 154.739 221.34C150.998 223.035 152.725 224.166 150.423 226.426C146.683 230.099 146.97 229.251 146.97 231.229C139.202 235.185 140.928 240.271 135.749 240.836ZM293.421 319.101C290.543 318.536 290.543 322.209 287.954 324.752C287.379 325.317 288.817 326.729 289.393 326.164C291.982 324.186 293.421 320.231 293.421 319.101C294.859 318.536 296.298 315.71 295.722 314.58C295.147 315.145 293.421 317.405 293.421 319.101ZM703.424 217.95C706.013 219.645 705.15 219.08 706.013 219.362C706.589 217.102 704.863 215.124 702.849 214.842C700.835 214.559 702.273 217.384 699.108 215.124C698.82 214.842 697.957 215.407 698.245 215.689C702.849 222.753 703.136 223.035 704.287 222.47C706.589 221.058 703.424 220.492 703.424 217.95ZM443.899 -20.8008C440.159 -21.0834 430.952 -14.5848 431.527 -13.4546C432.966 -11.4768 437.569 -17.4103 442.173 -18.2579C443.611 -18.5405 444.187 -19.6706 443.899 -20.8008C445.05 -20.5183 445.05 -19.6706 445.913 -20.5183C448.503 -23.0612 444.762 -23.6263 443.899 -20.8008ZM620.56 227.274C631.494 225.296 642.715 226.991 644.441 224.731C643.866 223.883 633.508 222.188 632.644 222.47C629.767 223.6 628.616 223.035 626.602 223.318C624.588 223.6 625.164 225.578 621.999 225.013C621.136 224.731 620.272 225.296 619.409 225.578C618.834 225.861 617.971 224.448 616.82 225.013C615.669 225.296 614.806 225.861 613.655 226.143C612.792 226.143 613.079 226.991 612.792 227.556C611.929 228.969 612.216 226.426 610.778 226.991C604.448 229.816 599.844 228.686 595.816 232.077C594.953 232.924 558.412 247.899 561.289 249.595C563.016 250.725 601.858 230.664 620.56 227.274ZM284.789 318.536C282.487 321.644 285.077 321.644 282.2 323.056C281.624 323.339 283.063 324.469 281.624 324.752C280.761 325.034 279.898 325.599 279.898 326.164C279.61 327.86 277.884 328.142 277.884 329.837C277.884 331.533 276.157 332.098 275.87 333.51C270.978 349.616 284.501 323.904 284.501 323.904C284.214 319.666 320.179 277.001 319.603 276.719C317.014 275.306 285.077 318.253 284.789 318.536ZM371.393 -9.78156C367.653 -5.54339 361.611 -3.56557 363.625 -3.28303C373.12 -2.15285 369.667 -9.21648 373.983 -7.23866C376.284 -6.10848 389.52 -17.4103 390.383 -19.6706C390.671 -20.5183 391.534 -18.823 392.397 -19.9532C395.274 -23.9088 394.699 -20.5183 395.85 -20.5183C397.576 -20.2357 396.713 -25.039 401.316 -26.7343C402.467 -27.2993 404.481 -28.7121 404.769 -30.6899C407.646 -30.4073 407.646 -33.7979 410.523 -33.5153C410.523 -32.3851 409.372 -32.1026 408.797 -31.255C408.222 -30.4073 408.797 -29.2772 407.934 -28.7121C406.208 -27.2993 410.811 -27.5819 415.702 -33.5153C416.853 -34.9281 418.004 -32.3851 418.58 -34.6455C418.867 -36.3408 420.881 -36.9059 421.169 -38.6011C421.169 -39.1662 421.457 -39.1662 421.745 -38.8837C424.046 -37.1884 425.485 -41.4266 425.773 -41.9917C426.348 -45.3822 432.966 -40.8615 434.117 -43.4044C434.404 -43.9695 441.597 -51.0331 442.46 -48.4902C443.324 -45.3822 455.696 -57.8142 455.983 -57.8142C459.724 -60.0745 455.696 -61.4873 451.955 -57.5316C451.38 -56.9665 451.092 -56.4015 450.517 -56.4015C445.913 -56.4015 418.867 -39.1662 418.58 -39.4488C416.566 -40.8615 418.004 -37.471 416.278 -37.471C409.373 -37.1884 412.25 -34.6455 410.811 -33.7979C409.948 -33.2328 410.811 -34.6455 409.66 -34.6455C408.222 -34.363 372.256 -10.6292 371.393 -9.78156ZM653.073 210.038C654.511 210.038 662.855 213.711 665.445 211.734C666.308 211.169 664.294 211.169 664.006 210.603C661.704 207.778 657.101 210.603 657.101 207.778C644.729 203.54 628.329 209.191 626.315 209.191C621.136 208.908 620.56 213.146 617.971 212.016C615.957 211.169 612.792 213.146 608.476 214.559C598.693 217.667 599.844 216.254 596.967 219.362C595.816 220.492 594.953 218.515 594.378 219.362C593.227 220.492 566.181 232.642 564.454 234.62C568.195 236.032 600.707 210.886 653.073 210.038ZM422.608 181.784C424.046 183.197 466.629 131.773 356.144 238.01C355.281 238.858 352.691 239.706 352.404 240.836C351.253 244.226 346.937 243.944 348.951 245.639C348.375 246.769 347.512 247.617 346.361 248.182C345.786 248.464 345.211 248.747 344.923 249.312C344.347 250.725 339.168 255.811 338.881 256.093C336.867 258.354 333.414 257.788 333.702 260.896C331.4 261.744 331.4 265.135 329.674 265.7C328.235 266.265 327.084 264.852 327.084 268.808C325.646 268.243 324.495 269.655 323.344 270.22C323.056 270.22 323.344 271.916 324.207 271.633C330.824 268.243 355.856 236.88 360.172 238.575C360.46 238.575 292.27 308.081 298.6 309.212C298.887 309.212 356.719 241.683 364.488 239.14C365.063 238.858 365.063 238.293 365.351 238.01C370.242 231.512 379.162 226.708 378.874 224.731C378.586 222.188 380.6 226.708 384.628 219.08C385.779 216.819 387.218 214.559 389.52 213.711C395.274 211.451 426.924 180.936 429.801 176.698C432.678 176.698 435.267 172.177 433.541 173.025C431.815 173.873 430.664 175.003 429.801 176.698C427.211 176.698 426.06 182.066 422.608 181.784ZM375.421 49.2703C379.449 47.2925 383.478 37.686 390.095 35.4256C392.397 34.8605 393.26 32.3176 395.562 31.7525C396.425 31.47 396.713 29.7747 397.288 29.4922C399.59 29.2096 405.057 23.8413 406.495 22.7111C410.523 19.6031 413.113 19.6031 411.962 17.3427C408.222 10.8442 285.94 115.103 276.733 127.818C272.129 134.034 298.024 112.278 298.312 111.995C298.312 109.452 302.34 106.344 303.203 106.062C307.807 104.932 300.614 110.3 301.765 110.583C302.628 110.865 308.67 107.475 310.972 102.671C311.835 100.693 328.235 85.1535 329.098 85.4361C329.386 85.4361 329.098 86.5662 328.81 86.5662C326.509 88.8266 313.273 102.954 318.452 99.5633C341.47 84.3059 331.975 89.9568 330.537 89.3917C327.084 87.979 368.804 65.3754 381.751 53.5085C406.208 30.3398 505.184 -18.823 505.472 -21.931C505.472 -22.2135 507.773 -28.7121 506.047 -27.5819C504.896 -27.0168 504.033 -26.4517 502.882 -27.2993C501.156 -28.9946 518.131 -33.7979 519.57 -36.3408C520.145 -37.471 526.188 -43.9695 520.145 -41.4266C510.075 -37.1884 511.801 -39.1662 507.486 -34.9281C507.198 -34.6455 507.198 -34.6455 506.622 -34.6455C504.896 -36.0582 503.457 -34.363 501.731 -33.7979C503.17 -31.255 500.868 -33.2328 500.005 -32.9502C499.429 -32.6677 499.717 -31.5375 498.566 -31.255C491.085 -30.1248 446.201 -4.69575 446.201 -4.69575C444.187 -4.69575 445.05 -3.00048 443.036 -2.15285C407.071 17.3427 413.688 18.4729 414.839 17.3427C415.415 16.7777 416.853 17.0602 415.99 17.9078C414.551 19.8857 417.429 20.1682 415.702 20.7333C415.127 21.0158 395.562 38.2511 392.397 39.0987C390.958 39.6638 389.807 40.794 388.657 41.6416C383.478 46.4449 380.313 45.5972 379.162 48.4227C378.011 50.683 373.407 53.5085 373.407 53.5085C373.12 51.5307 375.997 51.5307 375.421 49.2703ZM405.344 182.631C402.467 176.415 285.364 274.741 283.638 276.719C283.35 277.001 272.129 284.065 259.757 295.367C222.641 329.272 243.357 315.71 245.659 312.037C246.522 310.907 247.097 312.602 247.961 311.754C251.413 308.647 273.28 286.891 275.294 284.065C275.87 283.217 277.308 284.348 276.733 284.913C275.87 286.043 275.294 286.325 275.007 287.173C277.884 288.303 282.775 282.935 287.666 278.414C296.01 270.785 220.339 351.028 224.08 355.266C224.367 355.549 239.617 340.009 239.904 339.726C247.098 330.685 248.824 332.663 250.55 330.968C253.427 328.425 253.14 328.425 253.715 328.99C254.866 330.968 254.291 330.402 258.031 326.729C259.182 325.599 257.743 331.533 256.592 333.228C253.14 338.031 247.385 344.53 249.975 343.4C252.276 342.269 271.554 322.209 271.554 321.926C272.992 318.818 286.803 311.189 289.968 303.843C289.968 303.561 332.263 254.398 390.958 201.845C420.881 175.003 407.358 187.717 403.906 186.022C402.755 185.739 405.92 184.892 405.344 182.631ZM268.389 141.662C265.224 144.77 256.305 156.92 257.168 156.92C258.319 156.92 260.62 155.79 261.484 153.812C262.922 150.986 263.785 153.812 266.087 151.269C284.501 132.621 299.751 121.037 303.203 117.081C310.396 109.17 336.003 89.6742 291.694 121.037C291.407 121.037 270.403 137.424 267.238 139.12C266.375 139.685 266.663 139.685 268.389 141.662ZM544.889 397.083C539.998 393.693 537.696 402.451 532.805 400.191C531.079 399.343 530.791 401.321 529.065 401.321C526.763 401.321 526.187 402.451 522.159 407.255C521.584 407.82 522.159 408.102 522.735 408.102C523.598 408.102 524.173 409.232 525.324 408.385C528.202 406.407 529.64 406.124 529.64 404.429C529.64 403.582 530.503 402.451 533.381 404.712C534.244 405.277 534.244 404.712 534.531 404.147C534.531 403.864 536.545 402.451 537.984 403.016C538.272 401.604 539.998 401.604 540.574 400.756C541.149 399.908 543.163 401.039 540.286 399.343C542.3 397.931 543.163 399.908 544.889 397.083ZM644.441 215.407C638.974 210.321 607.613 219.927 607.325 219.927C606.75 219.927 607.037 221.34 607.613 221.34C637.536 214.276 641.852 217.384 644.441 215.407ZM451.668 -23.3437C452.818 -24.7564 472.671 -34.363 472.959 -34.6455C475.261 -36.3408 474.11 -39.7313 460.875 -31.255C460.299 -30.9724 455.408 -27.8644 453.394 -26.7343C449.366 -24.4739 447.639 -24.4739 448.503 -23.6263C449.366 -22.4961 451.092 -22.7786 451.668 -23.3437ZM493.963 -73.9192C493.387 -76.1796 491.661 -71.9414 488.496 -73.9192C485.906 -72.7891 483.029 -72.224 481.015 -70.2462C475.836 -65.7254 474.973 -68.5509 474.685 -66.2905C474.685 -65.1603 475.548 -64.3127 476.412 -65.1604C479.577 -67.7033 484.756 -68.2683 485.906 -69.6811C489.071 -73.0716 492.812 -70.2462 493.963 -73.9192ZM472.384 468.567C473.534 469.98 470.945 469.415 471.233 470.262C471.52 470.827 472.959 471.11 473.822 470.262C474.973 469.415 483.029 468.002 480.152 467.719C474.398 466.872 485.906 464.894 486.482 464.894C488.496 465.176 490.51 464.329 492.524 463.764C495.689 463.199 483.605 459.525 476.987 466.024C476.412 466.872 471.233 467.719 472.384 468.567ZM116.472 264.004C118.486 264.569 132.584 248.182 132.297 247.899C131.721 246.487 130.57 248.747 128.844 249.312C127.693 249.877 125.679 249.877 126.254 252.138C126.542 252.42 115.033 260.614 116.472 264.004ZM534.531 -74.7669C536.545 -79.8527 518.707 -74.7669 516.98 -75.0494C514.966 -75.332 508.349 -74.2018 522.735 -74.2018C523.598 -74.2018 524.461 -73.3542 525.612 -74.2018C526.475 -74.7669 528.202 -74.2018 529.352 -74.7669C532.805 -75.8971 533.668 -72.7891 534.531 -74.7669ZM431.815 492.018C450.804 487.215 439.008 493.148 434.404 489.475C433.829 488.91 432.966 488.91 432.39 489.475C431.527 490.04 431.239 488.91 430.376 488.91C423.759 490.04 424.334 493.713 431.815 492.018ZM19.7974 392.562C20.0851 393.127 20.6606 393.693 19.5097 393.693C15.4816 394.823 24.1132 397.931 24.1132 396.801C24.1132 395.67 24.9764 395.953 25.5518 395.388C29.2922 393.41 18.6465 389.172 19.7974 392.562ZM363.337 4.34569C363.625 4.34569 380.313 -5.54339 378.011 -6.67357C377.148 -6.95612 361.323 2.36787 363.337 4.34569ZM695.943 212.864C698.245 212.016 698.82 211.734 698.533 211.451C697.382 210.038 698.82 210.603 699.396 209.473C697.67 208.626 696.231 207.495 695.943 208.908C695.656 210.038 695.08 210.038 693.354 209.756C692.491 209.473 694.505 208.343 693.354 208.061C692.491 207.778 691.052 208.061 690.477 209.191C690.189 210.038 694.792 212.581 695.943 212.864ZM419.73 -5.54339C419.73 -6.39102 417.429 -8.0863 415.415 -4.41321C413.976 -1.87031 413.688 -3.84812 412.25 -2.43539C403.618 5.19331 418.58 -3.56557 419.73 -5.54339ZM267.238 336.618C266.375 338.314 264.936 338.879 265.799 339.726C267.813 341.704 269.54 334.358 272.129 332.098C272.417 331.533 272.129 327.012 267.238 336.618ZM540.574 -75.8971C541.149 -75.8971 543.163 -75.8971 543.163 -76.4621C543.451 -79.005 539.71 -78.7225 538.272 -79.5701C537.984 -79.5701 537.409 -79.005 536.833 -78.44C536.545 -78.1574 538.56 -75.6145 540.574 -75.8971ZM501.731 415.731C500.005 412.623 495.114 418.839 495.401 419.122C495.689 419.969 501.156 417.709 501.731 415.731ZM501.156 413.471C506.622 411.493 502.594 412.34 506.335 408.95C508.349 406.972 508.349 406.69 508.349 406.69C507.198 405.277 503.745 410.645 503.457 410.928C502.594 411.21 500.293 412.34 501.156 413.471ZM7.42538 366.286C9.72716 366.286 9.15171 366.568 10.3026 365.438C11.1658 364.59 10.0149 364.873 5.41133 363.46C3.685 363.178 3.39728 366.568 7.42538 366.286ZM84.2471 279.544C83.0962 277.001 79.3558 284.348 79.6435 284.913C80.5067 286.043 83.9593 282.37 84.2471 279.544ZM500.868 480.999C502.019 481.564 512.665 478.173 508.636 478.173C505.184 478.173 502.882 480.434 499.717 480.151C499.142 480.151 498.854 480.999 500.868 480.999ZM205.378 143.64C205.666 141.38 208.255 140.815 208.831 138.837C208.831 138.272 209.406 137.707 209.694 137.142C210.845 134.034 201.925 141.945 205.378 143.64ZM158.479 193.933C161.932 192.803 164.234 187.435 162.795 188.565C156.177 193.933 157.616 190.543 157.904 191.955C158.479 193.651 156.753 193.651 158.479 193.933ZM742.842 276.719C743.417 273.611 738.238 277.567 739.389 278.979C739.965 279.544 743.13 278.979 742.842 276.719ZM128.556 217.667C132.009 216.254 138.051 207.495 127.981 216.819C127.405 217.384 127.693 217.667 128.556 217.667ZM399.302 213.994C399.878 213.146 399.878 213.711 399.302 213.146C397.864 211.734 387.506 224.731 399.302 213.994ZM504.321 -75.0494C508.349 -75.0494 506.622 -78.7225 504.608 -77.8749C502.882 -76.7447 502.019 -75.332 504.321 -75.0494ZM613.655 223.883C612.504 221.905 602.721 226.143 606.174 226.143C606.462 226.143 613.079 224.166 613.655 223.883ZM194.157 153.812C196.171 155.79 198.473 150.421 197.034 150.421C196.171 150.421 195.308 150.139 195.02 151.269C195.02 152.117 193.869 152.682 194.157 153.812ZM534.819 -70.2462C536.258 -69.3985 536.258 -69.3985 537.121 -70.2462C537.984 -71.0938 538.847 -71.6589 537.984 -71.9414C534.819 -72.5065 531.942 -71.6589 534.819 -70.2462ZM727.305 224.166C722.414 224.731 725.003 226.426 726.442 226.143C730.182 225.013 729.894 224.731 727.305 224.166ZM209.406 341.139C207.967 340.292 204.227 343.965 205.378 344.53C205.953 344.812 209.118 341.704 209.406 341.139ZM179.483 171.612C178.044 170.482 175.743 173.59 176.03 173.59C178.332 175.003 178.62 173.59 179.483 171.612ZM168.549 183.762C169.413 182.632 170.851 182.066 170.851 180.654C171.139 179.523 167.399 182.066 168.549 183.762ZM681.269 220.775C680.406 217.95 676.09 218.797 680.982 221.34L681.269 220.775ZM383.19 228.686C382.039 227.274 379.449 230.664 380.025 230.947C380.888 231.512 382.614 228.969 383.19 228.686ZM557.261 238.858C556.398 236.598 552.082 241.401 555.535 240.271C557.549 239.423 557.837 239.14 557.261 238.858ZM501.731 404.147C500.58 402.734 498.854 406.69 500.293 406.972C500.58 406.972 502.019 406.124 501.731 404.147ZM511.514 412.623C510.075 410.928 507.486 417.426 509.5 415.448C511.801 412.906 511.226 413.471 511.514 412.623ZM517.844 477.891C517.268 477.043 514.966 476.761 513.528 478.739C512.665 479.869 517.556 478.173 517.844 477.891Z" fill="#CB9F53"/>
</svg>
