<svg width="23" height="21" viewBox="0 0 23 21" fill="none" xmlns="http://www.w3.org/2000/svg">
<path fill-rule="evenodd" clip-rule="evenodd" d="M23 2.46653C22.1549 2.88489 21.245 3.16781 20.2905 3.29422C21.2652 2.6441 22.0131 1.61325 22.3655 0.385254C21.4529 0.987212 20.4444 1.42514 19.3671 1.6599C18.5085 0.638076 17.2814 0 15.9233 0C13.3191 0 11.2064 2.35516 11.2064 5.25961C11.2064 5.67196 11.2469 6.07226 11.3279 6.45751C7.40612 6.2378 3.92986 4.14599 1.6011 0.960124C1.19475 1.73966 0.962552 2.6441 0.962552 3.60724C0.962552 5.43117 1.7955 7.04141 3.06181 7.98498C2.28961 7.9594 1.5606 7.72012 0.923402 7.32885V7.39356C0.923402 9.94285 2.55016 12.0693 4.71016 12.5508C4.31461 12.6742 3.89746 12.7359 3.46681 12.7359C3.16306 12.7359 2.86606 12.7043 2.57851 12.6426C3.17926 14.7314 4.92076 16.2529 6.98627 16.2935C5.37166 17.7051 3.33586 18.5463 1.1259 18.5463C0.745202 18.5463 0.368551 18.5223 0 18.4741C2.08845 19.964 4.56976 20.8353 7.23332 20.8353C15.9138 20.8353 20.6591 12.8217 20.6591 5.8706C20.6591 5.64186 20.655 5.41311 20.6469 5.18888C21.569 4.44697 22.3695 3.52146 23 2.46653Z" fill="#E42525"/>
</svg>
