<svg xmlns="http://www.w3.org/2000/svg" width="768" height="291" fill="none" viewBox="0 0 768 291">
    <path fill="#E62B1E" fill-rule="evenodd" d="M26.839 14l-13.5-14-13 14H0v277h768V14h-.352l-13.5-14-12.583 13.552L728.497 0l-13 14h-1.203l-13.5-14-13 14h-1.204l-13.5-14-13 14h-1.203l-13.5-14-13 14h-1.204l-13.5-14-13 14h-1.203l-13.5-14-13 14h-1.203l-13.5-14-13 14h-2.23l-13.5-14-13 14h-1.203l-13.5-14-13 14h-.178l-13.5-14-13 14h-1.203l-13.5-14-13 14h-.69l-13.5-14-13 14h-.691l-13.5-14-13 14h-.177l-13.5-14-12.584 13.552L344.754 0l-13 14h-1.204l-13.5-14-13 14h-1.203l-13.5-14-13 14h-1.204l-13.5-14-13 14h-1.203l-13.5-14-13 14h-1.204l-13.5-14-13 14h-1.203l-13.5-14-13 14h-2.229l-13.5-14-13 14H135.6L122.1 0l-13 14h-.177l-13.5-14-13 14h-1.204L67.72 0l-13 14h-.69L40.53 0l-13 14h-.69z" clip-rule="evenodd"/>
</svg>
