<svg xmlns="http://www.w3.org/2000/svg" width="782" height="60" fill="none" viewBox="0 0 782 60">
    <mask id="oqh4c5j5na" width="782" height="60" x="0" y="0" maskUnits="userSpaceOnUse">
        <path fill="#fff" d="M0 0H782V60H0z"/>
    </mask>
    <g mask="url(#oqh4c5j5na)">
        <path fill="#fff" fill-rule="evenodd" d="M104.41 45.433L91.357 32.34l-13.05 13.094L65.255 32.34 52.203 45.433 39.153 32.34 26.103 45.433 13.05 32.34 0 45.433V48h259.972v-2.567l-13.05-13.094-13.047 13.094-13.053-13.094-13.051 13.094L194.72 32.34l-13.052 13.094-13.05-13.094-13.052 13.094-13.051-13.094-12.529 12.571-12.529-12.57-13.047 13.093zM351.329 32.34l13.053 13.094L377.43 32.34l13.048 13.093 13.049-13.093 13.051 13.094L429.63 32.34l13.05 13.094 13.052-13.094 13.051 13.094 13.051-13.094 13.053 13.094 13.047-13.094 13.05 13.094V48H259.973v-2.567l13.05-13.094 13.051 13.094 13.052-13.094 13.05 13.094 13.052-13.094 13.051 13.094 13.05-13.094zm261.012 0l13.053 13.094 13.048-13.094 13.05 13.094V48H520.984v-2.567l13.051-13.094 13.051 13.094 13.052-13.094 13.05 13.094L586.24 32.34l13.051 13.094 13.05-13.094zm143.565 13.094L742.853 32.34l-13.05 13.094-13.052-13.094-13.052 13.094L690.65 32.34l-13.052 13.094-13.052-13.094-13.05 13.094V48h130.507v-2.567l-13.05-13.094-13.047 13.094zM782 48H1v11h781V48z" clip-rule="evenodd"/>
    </g>
</svg>
