<svg xmlns="http://www.w3.org/2000/svg" width="1440" height="156" fill="none" viewBox="0 0 1440 156">
    <mask id="3v1uo3s43a" width="1440" height="156" x="0" y="0" maskUnits="userSpaceOnUse">
        <path fill="#fff" d="M0 0H1440V156H0z"/>
    </mask>
    <g mask="url(#3v1uo3s43a)">
        <path fill="#F9F1DB" fill-rule="evenodd" d="M1445.42 82.095c-2.07-.453-2.65-3.692-2.23-3.722-1.69.114-2.85.014-4.59.078-1.89.073-1.33 1.78-2.87 2.218-1.49.424-1.86-.837-3.26-.088-2.36 1.252-3.26 1.573-5.53.536-2.06-.944-4.82-2.493-7.93-2.359-2.81.122-5.42-.544-8.13-.864-2.27-.265-3.38.523-5.41.356-6.04-.487-15.68-2.844-21.43-1.375-5.27 1.346-7.99 3.67-14.13 3.01-2.97-.322-3.52-1.721-5.75-2.02-2.08-.274-3.94.806-6.18.428-5.42-.92-11.68-.664-17.36-.624-12.85.097-25.43.924-38.33.192-2.56-.142-7.3 1.337-9.53.601-2.56-.848-5.19-.262-7.85-.013-3.64.34-12.37-2.015-15.07-.733-3.62 1.72-9.08 3.71-13.56 2.396-2.55-.74-3.9.085-6.35.014-1.8-.052-2.79-1.127-4.84-1.15-2.68-.027-2.86-2.063-5.46-1.78-1.37.148-4.57-1.053-6.21-1.174-2.34-.175-7.82.474-9.27-.62-.96-.726-8.4-1.83-10.07-2.124-2.56-.445-10.27-.592-11.93-2.04-.53-.46-14.02-1.346-15.69-1.244-4.66.291-7.08 2.113-12.02 1.753-2.67-.194-5.21-.868-7.85-1.028-2.82-.17-4.01 1.062-6.64 1.331-5.47.564-13.08-.05-17.92-1.511-3.16-.958-14.94-3.915-16.93-.384-1.01 1.778-8.16 2.646-10.68 2.507-2.1-.12-3.85-1.84-5.79-.256-1.14.93-6.37.054-7.61-.275-3.34-.886-10.17-1.351-13.68-1.036-5.81.517-8.56 2.6-13.91 2.695-3.31.057-7.06 1-10.63 1.206-4.82.277-9.79-.884-14.34-1.51-3.01-.412-9.86 3.693-11.56 2.778-2.46-1.327-5.53.535-7.98.853-2.69.346-5.42.114-8.13.045-4.88-.125-9.11-1.377-14.11-.32-3.19.673-4.05-.645-6.95-.896-2.652-.227-6.068.846-8.178 1.716-3.651 1.502-11.353.5-15.682.857-4.097.341-5.72-1.213-8.945-1.345-2.003-.085-4.75 1.639-6.97 1.862-5.717.564-10.848-.422-15.033-2.421-1.697-.81-10.232-3.465-12.13-3.071-3.612.743-3.408-1.18-6.275-1.404-2.926-.227-5.837.698-8.789.555-3.44-.165-8.234 4.146-12.91 2.57-2.402-.809-4.649.004-6.879.558-1.863.462-3.109-.427-5.035-.441-4.759-.028-7.218 4.733-11.404 3.985-4.644-.828-9.089 3.721-12.888 3.672-6.273-.08-11.94-.6-18.097-.975-2.128-.13-5.294-1.089-7.141-1.148-1.606-.053-3.451 1.052-5.062.527-2.754-.895-1.775.589-3.326 1.223-1.475.607-2.377-1.388-4.895-.194-1.48.702-2.927-.623-4.1.754-1.035 1.218-2.656 2.076-5.013 2.035-3.582-.066-5.335 2.002-9.576 1.495-2.92-.348-4.995.204-7.655.877-5.229 1.323-10.895 2.835-16.563 3.247-4.863.356-10.773.853-15.27 1.661-4.214.756-10.408 2.976-14.685 2.865-4.387-.115-7.718.502-9.462-2.645-.853-1.54-7.177-1.222-9.427-1.356-3.824-.224-4.918-2.118-7.635-3.289-1.682-.72-9 2.588-11.158-.435-2.773-3.886-9.287-.323-13.05-2.517-3.019-1.76-8.307-.971-11.986-.374-1.972.322-3.213 1.394-5.037 1.881-2.313.617-4.866.085-7.261.746-2.562.711-3.633 1.894-6.625 2.093-1.645.107-5 .018-6.384.29-7.768 1.525-.252-2.304-7.437-3.517-2.649-.446-5.596-1.282-8.206-.803-2.348.435-4.863 1.092-7.317 1.246-2.457.154-4.806-.73-7.245-.092-4.568 1.191-9.402-1.669-13.819-2.266-3.157-.426-7.083-2.214-10.299-2.097-2.012.074-3.914-1.661-5.212-1.457-5.714.89-11.081.585-16.797.417-5.109-.15-10.909.575-15.896-.522-4.781-1.052-7.961-1.464-13.307-1.059-2.195.169-2.801-2.118-5.87-2.05-2.727.064-4.031-1.776-7.088-1.209-2.137.395-1.523-1.293-3.905-.25-1.315.578-4.242 2.358-6.047 2.246-6.408-.39-14.897-7.692-17.51-11.043-1.457-1.867-4.149-.27-5.922-1.241-1.179-.644-.064-2.252-2.407-2.412-6.896-.467-8.699-1.901-14.353 1.582-3.244 1.998-9.107.628-12.334 2.1-2.311 1.054-5.931 2.83-9.258 2.293-4.739-.753-7.273 1.71-11.349 2.252-2.071.274-2.919 2-5.369 2.393-2.329.377-4.758.08-6.621 1.237-3.336 2.071-6.732 3-10.441 4.915-1.233.635-4.211 2.526-5.631 2.862-2.275.538-1.596 1.805-3.331 2.474-3.4 1.313-13.758-1.587-15.549-.085-2.233 1.872-8.399-1.042-11.412-.017-3.12 1.06-10.352 1.439-13.631.415-.294-.09-10.661-1.436-10.384-1.55-3.621 1.472-6.367-.36-9.109-1.592-2.896 1.95-1.289-.426-3.535-.488-1.758-.043-9.569.436-11.095-.246.447.199-9.043 4.108-11.796 3.9-2.625-.195-4.206.881-6.232 1.27-1.835.352-3.655-.63-5.475-.598-6.734.114-5.974.442-11.439-2.3-3.598-1.808-6.422-5.713-11.842-3.877-4.368 1.48-10.242 2.49-15.148 2.93-4.662.423-9.866-2.224-14.724-1.624-2.356.291-4.678 2.45-7.393 1.028-.848-.446-4.612-2.034-6.041-2.062-4.296-.087-8.618 2.233-13.372 2.313-6.307.11-9.241-1.279-15.307.318-5.532 1.454-11.307.885-17.008 1.26-3.443.228-6.476-.36-9.945.309-2.195.427-5.521-.045-7.309.626-2.931 1.106-3.234-.343-5.644-.709-1.241-.193-5.924.774-7.369.908-13.1 1.224-25.061-1.129-38.317-1.037-3.664.027-10.143-.87-13.453.204-2.541.823-5.335.61-7.824-.082-5.373-1.489-10.487-3.219-16.036-4.545-1.984-.475-11.957-3.328-13.607-2.944-6.758 1.557-8.244-1.68-14.275-1.635-4.331.034-10.04.863-14.217-.644-2.036-.734-1.287-1.848-4.186-1.996.57.03-2.862.347-2.89.335-3.304-1.434-11.766-2.327-15.218-.937-2.175.872-12.341 1.067-14.706.589-2.927-.589-5.78-1.105-8.957-.65-2.357.337-2.816 1.928-5.24.707-2.13-1.079-9.706.731-12.666 1.014-3.717.357-13.848.701-15.862 2.976-2.536 2.857-1.247 8.165-1.474 11.303-1.472 20.429-1.929 40.917-2.75 61.355-.216 5.426-.42 10.856-.656 16.284-.196 4.602-1.044 5.678 5.723 7.406 2.782.708 3.5 2.096 7.024 1.345 2.053-.435 5.086-.137 7.109.088 3.32.374 6.799.862 8.05 2.256 3.843-2.014 12.386-.005 17.125.324 1.69.117 4.825-1.81 6.005-.731 1.298 1.184 3.604 1.516 5.284 2.416 1.583.858 8.983-1.407 10.853-1.843 3.895-.903 10.024 2 11.12 4.128 3.567-2.317 9.554.831 14.099-.626 4.651-1.487 9.303-1.227 13.473.161 2.36.787 4.209.299 6.678.467 2.563.175 4.639 1.348 7.364 1.567 4.385.348 11.825.469 15.546 1.886 2.511.953 5.345.715 8.14.801 1.13.035 1.84-2.053 3.874-2.314 4.713-.61 8.576-1.141 12.637-2.638 3.746-1.382 10.247-2.479 14.557-3.12 3.019-.445 4.092.484 6.685.935 1.538.265 4.293-1.681 5.362-2.005 3.086-.934 5.749.421 8.744-1.036 1.417-.684 4.175-.273 5.28.524 2.218 1.599 11.002-1.441 13.422-1.991 5.568-1.265 8.706-1.531 14.511-2.061 2.648-.244 4.282-1.446 7.145-1.156 2.843.286 5.481 1.194 8.349 1.534 11.611 1.377 22.25-.378 33.696 1.479 6.384 1.039 11.346 1.758 17.279 3.638 4.408 1.391 8.403 3.428 13.223 4.064 3.683.483 5.706.985 9.962.96 3.519-.024 14.003-.626 16.611-2.216 1.121-.687 7.514-3.38 9.137-3.644.634-.105 3.849.219 3.854-.788.005-1.121.668-2.132 2.765-2.066 4.332.137 7.429.813 11.806 1.342 5.997.724 13.351.085 18.592 2.427 3.99 1.786 7.126 1.577 11.695 2.933 4.053 1.215 5.718-1.573 8.935-2.754 3.332-1.218 6.721-2.69 10.696-3.204 3.79-.493 8.413-.533 11.819-1.54 1.191-.355 6.106.418 7.696.327 3.239-.185 6.486-.232 9.728-.403 5.516-.289 10.113-2.524 15.687-2.529 6.355-.002 12.094 1.077 18.687.89 3.175-.09 6.116.786 9.298.644 1.408-.067 1.855 1.293 3.96 1.086 4.329-.432 16.189-.077 16.999 3.165 5.297-3.199 6.844.05 10.875 1.09 3.853.993 8.204 1.737 11.362 3.569 5.839 3.389 14.41-2.081 17.268-5.554 1.47-1.79 14.095-8.692 18.12-7.806 4.686 1.033 6.402-1.194 11.511-1.237 4.943-.043 7.862.623 12.445.163 2.659-.267 4.836.88 7.407.671 1.944-.157 4.067-.934 5.991-1.246 4.095-.664 9.137-.43 13.26-.194 4.592.257 6.71.388 10.408 1.305 3.192.791 10.451-.773 13.976-.929 2.479-.112 4.597-.825 6.872.199.443.196 2.337 2.275 3.322 2.098 3.56-.646 5.974-2.707 10.086-1.385 5.047 1.626 3.317 2.479 9.175 1.517 2.533-.422 8.891-.445 11.483-.256 2.034.149 5.323 2.663 6.752 2.459 2.353-.336 4.498.375 6.618.825 3.502.741 7.492.365 10.806-.492 5.322-1.382 9.915-.93 15.322-2.551 1.985-.592 4.668-.561 5.962.693 1.574 1.517 3.151-.295 5.331-.069 2.911.301 10.46 3.739 11.058 5.178.708 1.716 5.838 4.757 9.207 4.026 5.328-1.161 8.594 3.381 11.921 5.059 3.781 1.902 8.142 3.299 11.772 5.274 2.488 1.354 6.949 7.963 11.246 5.055 2.207-1.49 4.39-.448 7.114-.618 3.17-.201 4.265-1.65 6.751-2.541 3.661-1.303 6.206-.27 9.403-2.426 3.042-2.052 10.651-4.543 15.011-5.266 1.398-1.969 5.607-.525 7.816-.179 2.142.333 2.571-.304 4.635-.86 4.023-1.094 8.403-1.97 12.327-2.832 3.537-.783 7.063-3.033 10.9-3.536 2.194-.282 3.156.943 5.128.993 1.168.03 3.99-.784 5.232-.967 4.688-.694 3.382-.98 7.848 1.026 1.29.578 4.133 2.109 6.204 1.711 6.555-1.27 8.977 2.503 15.11 2.346 3.665-.091 9.56.767 12.847 1.777 4.434 1.359 8.607.631 13.442-.004 2.7-.355 3.359-1.768 6.165-1.82 2.649-.05 4.971-.877 7.156-1.712 5.263-2.004 9.936 1.944 15.047.704 7.925-1.93 19.143.112 26.664 2.112 4.86 1.294 11.242 1.744 16.635 2.631 3.26.53 11.125 1.79 13.625 3.093 4.39 2.272 7.78 3.001 12.52 4.731 3.06 1.116 6.67 1.256 10.05 1.737 2.25.319 1.77-1.799 2.07-2.491.78-1.829 3.76-3.326 3.97-5.201.21-1.929 2.89-1.098 4.64-1.334 5.05-.687 7.54-2.543 11.55-3.914 2.05-.698 3.4-.527 5.42-1.549 1.83-.926 2.16-1.944 4.69-2.272.97-.121 5.17-1.005 6.02-.634 1.36.587-.74 1.25.36 1.758 2.08-.726 2.06-3.043 4.94-2.195 2.58.758 4.88-1.303 6.83-.207 2.24 1.273 6.6 1.302 8.26 2.871 1.98 1.885-1.65 2.482-1.41 4.194 2.78-.047.77-1.118 4.79-.76 2.14.191 4.18 1.054 6.32 1.365 4.01.575 7.23 1.317 10.01-1.156.57-.497 10.02-3.821 10.44-3.625 1.37.641 12.47.489 13.56.086.84-.313 10.35-2.346 11.05-2.287 2.01.162 4.69-.931 6.23-.616 1.8.368 3.16 1.031 5.23.666 2.3-.408 3.39.706 5.27.515 1.77-.181.75-1.795 3.22-1.293 2.23.451 2.25-1.379 3.99-1.663 2.06-.331 4.37 1.034 6.68.815 2.84-.265 12.21-.109 13.19-1.924 1.25-2.31 9.53 1.512 11.73.701 4.18-1.547 7.13-.725 11.04-.711 2.42.015 2.45-1.785 5.52-1.009 2.29.584 3.93 1.837 6.38.545 2.79-1.472 7.23-.197 10.23.785 4.78 1.564 10.7 2.135 15.18 3.874 1.49.578 3.36.452 4.91.914 1.24.366 1.24 1.659 2.54 2.233 2.93 1.28 6.82 2.951 6.38 5.46 2.1-.99 12.27-.446 15.94-3.491 1.6-1.32 12.01-1.367 14.16-1.099 5.23.651 5.58 1.599 9.82 2.67 3.42.863 6.57 2.285 10.38 2.512 1.91.114 3.25-.669 5.04.024 8.34 3.232 14.6 5.139 24.32 5.848 1.33.094 4.66-.629 5.49.124.58.525 4.19 1.109 5.17.815 5.61-1.712 3.54-2.996 10.24-.825 2.14.699 13.37.962 15.91.616 2.98-.407 11.6-3.441 13.23-1.076 1.49 2.18 4.57-.514 7.57.578 4.31 1.565 9.38-9.725 14.67-8.848 6.22 1.028 13.45-3.943 19.82-3.995 5.58-.046 7.43-7.271 12.3-6.593 1.99.272 3.47-.2 5.1-.178V81.577c-.64.387-1.19.604-1.58.518z" clip-rule="evenodd"/>
    </g>
</svg>
