<svg xmlns="http://www.w3.org/2000/svg" width="46" height="24" fill="none" viewBox="0 0 46 24">
    <path fill="#3B5998" d="M31.463 14.482c.533.227 1.065.461 1.604.671.259.103.356.272.41.54.121.613.024 1.2-.12 1.79-.108.448-.308.609-.763.682-.134.023-.27.101-.38.187-.1.077-.19.167-.282.255 1.098.468 2.235.988 3.37 1.57.543.28 1.023.63 1.426 1.045l.372.385v1.844H46c-.25-1.683-1.275-2.68-2.825-3.253-1.009-.372-1.998-.803-2.98-1.247-.28-.13-.488-.409-.739-.6-.11-.085-.247-.165-.377-.188-.457-.073-.657-.234-.764-.684-.14-.588-.245-1.177-.121-1.788.054-.268.15-.438.41-.54.541-.21 1.07-.444 1.604-.672.401-.17.423-.307.28-.721-.46-1.3-.8-2.624-.91-4.015-.073-.878-.049-1.775-.26-2.637h-.032c-.019-.08-.028-.16-.049-.24-.387-1.52-2.017-2.346-3.387-2.434-.014-.002-.024-.004-.033-.004-.105-.007-.205.009-.308.015-.577.08-1.05.446-1.599.606-.713.21-1.152.868-1.42 1.575-.376 1.005-.307 2.077-.392 3.118-.11 1.391-.452 2.713-.91 4.013-.15.417-.124.559.275.727zM9.508 21.623l.417-.393c.38-.356.833-.672 1.429-.988l.418-.226c.592-.32 1.182-.639 1.792-.93.32-.152.655-.287.983-.426-.07-.192-.138-.384-.197-.579-.078-.247-.127-.495-.447-.562-.08-.017-.179-.154-.192-.247-.064-.477-.113-.958-.146-1.44-.008-.1.045-.234.116-.31.419-.47.653-1.014.748-1.638.048-.31.224-.603.314-.908.12-.413.219-.833.314-1.252.034-.151.014-.314.038-.47.034-.225.027-.4-.243-.487-.077-.025-.137-.202-.139-.313-.014-.67-.005-1.34-.007-2.01-.006-.41 0-.825-.03-1.234-.059-.787-.52-1.34-1.098-1.817-.846-.695-1.829-1.353-2.895-1.267-.026.001-.047.008-.072.012-.025-.004-.045-.01-.072-.012-1.067-.086-2.051.572-2.894 1.267-.578.477-1.04 1.03-1.098 1.817-.03.41-.028.824-.03 1.234-.002.671.006 1.342-.007 2.01-.003.11-.064.29-.14.313-.27.087-.276.262-.241.488.025.155.004.318.038.469.093.419.192.838.313 1.252.09.305.264.598.314.908.096.624.327 1.168.749 1.637.07.08.12.21.114.31-.033.483-.081.961-.147 1.44-.013.093-.112.232-.192.248-.32.067-.37.314-.445.562-.1.329-.208.657-.335.975-.04.096-.139.2-.237.246-.568.247-1.147.473-1.719.715-.608.254-1.223.5-1.816.783-.616.293-1.209.624-1.805.945-.355.19-.685.398-.961.657v1.052h9.5v-1.83h.008v-.001z"/>
    <path fill="#3B5998" d="M34.698 21.353c-2.09-1.07-4.25-1.958-6.436-2.798-.165-.063-.36-.186-.426-.33-.178-.395-.3-.812-.428-1.227-.08-.264-.149-.515-.442-.64-.078-.032-.146-.188-.146-.285.016-.96-.205-1.967.506-2.805.024-.028.028-.065.046-.094.382-.84.452-1.8.988-2.583.014-.019.016-.044.019-.067.061-.597.129-1.192.177-1.789.006-.075-.059-.205-.123-.228-.296-.105-.28-.342-.278-.58 0-1.165 0-2.33-.002-3.497 0-.678-.2-1.28-.711-1.74-.582-.524-1.183-1.031-1.78-1.538-.291-.246-.313-.432-.044-.703.12-.118.275-.203.41-.302-.027-.046-.06-.091-.087-.137-.182 0-.366-.025-.541.004-.662.106-1.33.2-1.979.355-1.242.293-2.45.682-3.46 1.512-.689.57-1.238 1.233-1.31 2.168-.033.492-.03.985-.033 1.476-.004.8.007 1.603-.01 2.402-.003.132-.08.344-.168.374-.323.105-.332.31-.29.582.03.185.008.38.047.56.112.501.232 1.002.375 1.495.108.366.317.713.375 1.087.115.745.391 1.395.896 1.956.081.092.145.249.136.372-.039.575-.097 1.148-.176 1.718-.017.111-.134.277-.23.298-.38.082-.44.373-.53.67-.12.393-.246.785-.401 1.165-.046.118-.166.243-.282.293-.68.297-1.369.569-2.052.852-.728.305-1.46.598-2.168.936-.734.35-1.443.742-2.158 1.128-.42.223-.816.473-1.146.785v1.255H35.78v-1.307c-.306-.317-.665-.58-1.082-.793z"/>
</svg>
