<svg xmlns="http://www.w3.org/2000/svg" width="30" height="19" fill="none" viewBox="0 0 30 19">
    <path fill="#DC4E41" fill-rule="evenodd" d="M9.545 11.4V8.143h9.014c.082.475.15.95.15 1.574 0 5.429-3.654 9.283-9.164 9.283C4.268 19 0 14.752 0 9.5S4.268 0 9.545 0c2.578 0 4.732.936 6.396 2.484L13.35 4.967c-.71-.678-1.95-1.466-3.805-1.466-3.259 0-5.918 2.688-5.918 5.999 0 3.311 2.66 5.999 5.918 5.999 3.778 0 5.196-2.701 5.414-4.099H9.545zm17.728-3.257H30v2.714h-2.727v2.714h-2.727v-2.714h-2.728V8.143h2.727V5.429h2.728v2.714z" clip-rule="evenodd"/>
</svg>
