<svg xmlns="http://www.w3.org/2000/svg" width="20" height="20" fill="none" viewBox="0 0 20 20">
    <path fill="#000" fill-rule="evenodd" d="M15.614 0H3.741C1.679 0 0 1.677 0 3.74v11.874c0 2.063 1.679 3.74 3.74 3.74h11.874c2.062 0 3.74-1.677 3.74-3.74V3.741c0-2.064-1.678-3.741-3.74-3.741zm1.073 2.232l.428-.003V5.51l-3.27.01-.012-3.28 2.854-.008zM6.918 7.69c.618-.858 1.624-1.42 2.761-1.42s2.143.562 2.762 1.42c.404.56.645 1.245.645 1.987 0 1.878-1.528 3.406-3.407 3.406-1.877 0-3.406-1.528-3.406-3.406 0-.742.242-1.427.644-1.987zm10.552 7.924c0 1.023-.832 1.855-1.855 1.855H3.74c-1.023 0-1.855-.832-1.855-1.855V7.69h2.89c-.25.615-.39 1.285-.39 1.987 0 2.918 2.374 5.293 5.292 5.293 2.92 0 5.293-2.375 5.293-5.293 0-.702-.142-1.372-.39-1.987h2.889v7.924z" clip-rule="evenodd"/>
</svg>
