<svg xmlns="http://www.w3.org/2000/svg" width="24" height="24" fill="none" viewBox="0 0 24 24">
    <g clip-path="url(#clip0)">
        <path fill="#CFD8DC" d="M22.5 13.5H21V3.75c0-1.24-1.01-2.25-2.25-2.25H5.25C4.01 1.5 3 2.51 3 3.75v9.75H1.5V3.75C1.5 1.683 3.183 0 5.25 0h13.5c2.069 0 3.75 1.683 3.75 3.75v9.75z"/>
        <path fill="#2196F3" d="M22.874 12.258c-.802.894-4.257 2.027-4.702 2.027h-3.786c-.846 0-2.273.223-2.273.759v6.828c0 .624.867 2.13 3.497 2.13s3.318-3.113 3.318-3.647v-3.793c1.87-.983 3.786-1.518 4.702-3.275.863-1.654.045-1.921-.756-1.029z"/>
        <path fill="#FFC107" d="M11.358 18.076v3.794c0 .625-.98 1.518-2.271 1.518-1.292 0-3.786-1.829-3.786-3.035v-4.107s-3.458-1.354-4.26-2.337c-.803-.982-1.203-1.384-.98-1.962.215-.56 2.807 1.607 4.322 1.964 1.516.357 4.143.535 5.257.492 1.113-.047 1.737.399 2.36.978 0 0 .706 1.153 2.436 1.137 1.73-.017 2.13-1.358 2.736-1.482.511-.107.759.106.759.582 0 .475-2.118 2.259-3.52 2.593-.656.156-2.411.3-3.053-.135z"/>
        <path fill="#2196F3" d="M15.649 13.044c1.463 0 2.65-1.189 2.65-2.655 0-1.466-1.187-2.655-2.65-2.655-1.464 0-2.651 1.189-2.651 2.655 0 1.466 1.187 2.655 2.65 2.655z"/>
        <path fill="#FFC107" d="M8.666 13.044c1.464 0 2.65-1.189 2.65-2.655 0-1.466-1.186-2.655-2.65-2.655s-2.65 1.189-2.65 2.655c0 1.466 1.186 2.655 2.65 2.655z"/>
    </g>
    <defs>
        <clipPath id="clip0">
            <path fill="#fff" d="M0 0H24V24H0z"/>
        </clipPath>
    </defs>
</svg>
