<svg xmlns="http://www.w3.org/2000/svg" width="25" height="29" fill="none" viewBox="0 0 25 29">
    <g fill-rule="evenodd" clip-path="url(#clip0)" clip-rule="evenodd">
        <path fill="#00F7EF" d="M2.887 25.61c-6.03-5.199-2.13-16.777 7.138-15.318v1.071c-7.826-.36-11.27 8.92-7.138 14.247zM19.795 5.53c.951.757 2.266 1.312 4.076 1.422v1.051c-2.003-.37-3.274-1.359-4.076-2.474zM17.282 0c0 .387.05.804.113 1.184h-3.693v18.285c0 .843-.087 1.594-.26 2.252-1.504 3.297-5.766 2.864-6.94.605 1.753 1.092 4.634.8 5.816-1.789.173-.658.26-1.409.26-2.252V0h4.704z"/>
        <path fill="#000" d="M18.41 1.184v.023c0 .423.125 6.545 6.588 6.925 0 5.695.003 0 .003 4.73-.486.029-4.256-.242-6.599-2.322l-.006 9.207c.056 4.17-2.276 8.258-6.649 9.08-1.224.232-2.329.259-4.18-.145C-3.1 25.517.445 9.792 11.156 11.476c0 5.076.003 0 .003 5.076-4.425-.648-5.903 3.01-4.728 5.629 1.071 2.384 5.474 2.9 7.011-.463.173-.659.26-1.41.26-2.253V1.184h4.708z"/>
        <path fill="#FF004F" d="M10.03 11.363c.366.017.742.053 1.125.113 0 5.076.003 0 .003 5.076-4.425-.648-5.903 3.01-4.728 5.629.02.046.046.095.07.142-.526-.328-.949-.777-1.195-1.326-1.175-2.62.303-6.277 4.729-5.629-.004-4.653-.004-.78-.004-4.005zM23.873 8c.353.063.729.109 1.125.132 0 5.695.003 0 .003 4.73-.486.029-4.256-.242-6.599-2.322l-.006 9.207c.056 4.17-2.276 8.258-6.649 9.08-1.224.232-2.33.259-4.18-.145-2.082-.618-3.623-1.72-4.674-3.075.938.81 2.116 1.465 3.55 1.892 1.85.4 2.952.373 4.176.145 4.373-.82 6.709-4.908 6.652-9.075l.007-9.21c2.346 2.08 6.112 2.351 6.602 2.322-.004-4.396-.007.205-.007-3.681zm-5.464-6.816v.023c0 .248.043 2.46 1.388 4.322-1.618-1.286-2.197-3.145-2.4-4.345h1.012z"/>
    </g>
    <defs>
        <clipPath id="clip0">
            <path fill="#fff" d="M0 0H25V29H0z"/>
        </clipPath>
    </defs>
</svg>
