<svg xmlns="http://www.w3.org/2000/svg" width="23" height="19" fill="none" viewBox="0 0 23 19">
    <path fill="#55ACEE" fill-rule="evenodd" d="M23 2.242c-.845.38-1.755.638-2.71.753.975-.591 1.723-1.528 2.076-2.645-.913.547-1.922.946-2.999 1.159C18.51.58 17.281 0 15.923 0c-2.604 0-4.717 2.141-4.717 4.781 0 .375.04.74.122 1.09C7.406 5.67 3.93 3.768 1.6.872c-.406.709-.638 1.53-.638 2.406 0 1.658.833 3.122 2.099 3.98-.772-.023-1.501-.24-2.139-.596v.058c0 2.318 1.627 4.251 3.787 4.689-.395.112-.813.168-1.243.168-.304 0-.6-.029-.888-.085.6 1.9 2.342 3.282 4.407 3.32-1.614 1.283-3.65 2.047-5.86 2.047-.38 0-.757-.022-1.126-.065 2.088 1.354 4.57 2.146 7.233 2.146 8.68 0 13.426-7.285 13.426-13.604 0-.208-.004-.416-.012-.62.922-.674 1.723-1.516 2.353-2.475z" clip-rule="evenodd"/>
</svg>
