<svg xmlns="http://www.w3.org/2000/svg" width="40" height="33" fill="none" viewBox="0 0 40 33">
    <path fill="#45B035" fill-rule="evenodd" d="M9.314 9.775c-1.108 0-2.006-.871-2.006-1.943 0-1.073.898-1.941 2.006-1.941 1.108 0 2.008.868 2.008 1.941 0 1.072-.9 1.943-2.008 1.943zm9.942-3.884c1.108 0 2.005.868 2.005 1.941 0 1.072-.897 1.943-2.005 1.943-1.109 0-2.005-.871-2.005-1.943 0-1.073.896-1.941 2.005-1.941zm8.547 4.216c.202 0 .402.002.601.013C27.352 4.387 21.431 0 14.285 0 6.395 0 0 5.349 0 11.947c0 3.869 2.198 7.308 5.607 9.491l.131.083-1.38 4.323 5.164-2.63.243.07c1.419.395 2.941.609 4.52.609.322 0 .642-.013.96-.029-.293-.909-.454-1.864-.454-2.85 0-6.025 5.828-10.907 13.012-10.907z" clip-rule="evenodd"/>
    <path fill="#45B035" fill-rule="evenodd" d="M22.017 17.607c0-.904.76-1.639 1.695-1.639.937 0 1.696.735 1.696 1.64 0 .907-.76 1.643-1.696 1.643-.935 0-1.695-.736-1.695-1.644zm8.399 0c0-.904.758-1.639 1.694-1.639.937 0 1.695.735 1.695 1.64 0 .907-.758 1.643-1.695 1.643-.936 0-1.694-.736-1.694-1.644zm-14.574 3.477c0 5.575 5.405 10.094 12.07 10.094 1.334 0 2.62-.182 3.818-.517.069-.018.206-.059.206-.059l4.36 2.224-1.165-3.654.11-.069c2.88-1.844 4.738-4.749 4.738-8.019 0-5.573-5.403-10.092-12.066-10.092-6.666 0-12.071 4.52-12.071 10.092z" clip-rule="evenodd"/>
</svg>
