<svg xmlns="http://www.w3.org/2000/svg" width="36" height="29" fill="none" viewBox="0 0 36 29">
    <path fill="#fff" fill-rule="evenodd" d="M3 19.5C3 23.643 8.374 27 15 27s12-3.357 12-7.5S21.626 12 15 12 3 15.357 3 19.5z" clip-rule="evenodd"/>
    <path fill="#E6162D" fill-rule="evenodd" d="M14.931 26.868c-5.884.59-10.964-2.102-11.347-6.003-.382-3.907 4.08-7.546 9.96-8.136 5.884-.59 10.964 2.102 11.341 6.004.388 3.906-4.075 7.55-9.954 8.135zm11.764-12.964c-.5-.154-.844-.253-.584-.917.569-1.443.628-2.687.01-3.58-1.152-1.665-4.31-1.576-7.929-.044 0 0-1.138.5-.843-.407.554-1.81.47-3.321-.393-4.199-1.961-1.988-7.183.075-11.66 4.6C1.946 12.745 0 16.339 0 19.448 0 25.386 7.537 29 14.907 29 24.572 29 31 23.323 31 18.817c.005-2.727-2.265-4.274-4.305-4.913z" clip-rule="evenodd"/>
    <path fill="#F93" fill-rule="evenodd" d="M33.47 3.048C31.032.507 27.44-.46 24.121.203c-.768.154-1.254.867-1.09 1.584.163.722.916 1.18 1.684 1.025 2.36-.471 4.914.217 6.644 2.022 1.73 1.805 2.202 4.265 1.46 6.421-.241.703.168 1.454.916 1.68.747.226 1.546-.159 1.786-.857v-.005c1.044-3.027.384-6.488-2.053-9.025z" clip-rule="evenodd"/>
    <path fill="#F93" fill-rule="evenodd" d="M29.724 6.554c-1.232-1.297-3.048-1.791-4.72-1.448-.685.136-1.12.782-.977 1.433.149.65.823 1.064 1.503.923.817-.167 1.71.076 2.31.706.599.636.764 1.499.503 2.256-.212.63.15 1.311.818 1.518.669.202 1.38-.141 1.598-.777.526-1.549.196-3.315-1.035-4.611z" clip-rule="evenodd"/>
    <path fill="#000" fill-rule="evenodd" d="M15.886 20.284c-.219.358-.704.528-1.08.378-.376-.144-.491-.548-.277-.897.22-.349.684-.518 1.055-.378.376.13.511.533.302.897zm-2 2.442c-.605.922-1.905 1.325-2.882.902-.96-.42-1.248-1.49-.642-2.393.6-.897 1.854-1.295 2.825-.907.982.404 1.295 1.466.7 2.398zm2.277-6.529c-2.981-.742-6.35.678-7.644 3.184-1.321 2.557-.042 5.398 2.966 6.325 3.122.962 6.798-.514 8.078-3.27 1.263-2.7-.314-5.477-3.4-6.239z" clip-rule="evenodd"/>
</svg>
