<svg xmlns="http://www.w3.org/2000/svg" width="32" height="23" fill="none" viewBox="0 0 32 23">
    <path fill="red" fill-rule="evenodd" d="M28.502.687c1.377.377 2.461 1.49 2.83 2.905C32 6.154 32 11.5 32 11.5s0 5.346-.669 7.909c-.368 1.413-1.452 2.527-2.829 2.905C26.007 23 16 23 16 23s-10.007 0-12.502-.686c-1.377-.378-2.461-1.492-2.83-2.905C0 16.846 0 11.5 0 11.5s0-5.346.669-7.908C1.037 2.178 2.12 1.064 3.498.687 5.993 0 16 0 16 0s10.007 0 12.502.687zM13 7v10l8-5-8-5z" clip-rule="evenodd"/>
</svg>
