<svg xmlns="http://www.w3.org/2000/svg" width="34" height="40" fill="none" viewBox="0 0 34 40">
    <path fill="#490E00" fill-rule="evenodd" d="M15.874 2.684V6.58C7.01 7.142 0 14.289 0 23.022 0 32.122 7.611 39.5 17 39.5s17-7.377 17-16.478c0-8.733-7.01-15.88-15.873-16.442V2.684h7.377c.622 0 1.126-.489 1.126-1.092C26.63.989 26.126.5 25.504.5H9.063c-.622 0-1.126.489-1.126 1.092 0 .603.504 1.092 1.126 1.092h6.81zM2.254 23.022C2.253 15.128 8.855 8.728 17 8.728s14.747 6.4 14.747 14.294c0 7.895-6.603 14.294-14.747 14.294s-14.747-6.4-14.747-14.294zm15.874-8.547c0-.604-.505-1.092-1.127-1.092s-1.127.489-1.127 1.092v8.143l-6.722 6.467c-.441.425-.444 1.117-.005 1.545.438.428 1.151.43 1.593.005l7.055-6.788c.213-.205.333-.484.333-.774v-8.598z" clip-rule="evenodd"/>
</svg>
