<svg xmlns="http://www.w3.org/2000/svg" width="39" height="38" fill="none" viewBox="0 0 39 38">
    <path fill="#490E00" fill-rule="evenodd" d="M8.97.455c1.68-.99 3.869-.3 4.637 1.462l2.472 5.667c.63 1.444.075 3.12-1.3 3.931L12.26 13c-1.288.76-2.942.55-3.988-.506L3.818 7.995C2.377 6.54 2.695 4.155 4.47 3.11L8.97.455zm2.658 2.285c-.256-.588-.986-.818-1.546-.488l-4.5 2.654c-.592.35-.698 1.144-.218 1.63l4.456 4.497c.348.352.9.422 1.329.169l2.517-1.485c.459-.27.643-.829.434-1.31L11.628 2.74zm27.057 10.968c.42-.41.42-1.075 0-1.485-.42-.41-1.101-.41-1.521 0l-7.78 7.595c-.03.03-.058.06-.083.092h-9.985c-.019-.074-.046-.148-.083-.219l-1.637-3.198c-.266-.518-.912-.729-1.444-.47-.53.26-.746.89-.48 1.41l1.268 2.477H0v6.539C0 32.829 5.297 38 11.831 38H26.35c6.534 0 11.83-5.172 11.83-11.551V19.91h-5.847l6.352-6.202zM2.151 26.448c0 5.22 4.334 9.452 9.68 9.452H26.35c5.346 0 9.68-4.232 9.68-9.451V22.01H2.15v4.439zm15.962-14.866c-.394-.434-1.074-.475-1.518-.09-.445.385-.486 1.048-.092 1.482l2.335 2.574c.394.434 1.074.475 1.518.09.445-.384.486-1.048.092-1.482l-2.335-2.574zm-6.023 3.627c.536-.25 1.178-.029 1.434.494l.79 1.613c.257.523.03 1.15-.506 1.4s-1.178.03-1.434-.494l-.79-1.612c-.257-.524-.03-1.15.506-1.4z" clip-rule="evenodd"/>
</svg>
