<svg xmlns="http://www.w3.org/2000/svg" width="20" height="20" fill="none" viewBox="0 0 20 20">
    <path fill="#fff" fill-rule="evenodd" d="M.81 6.626h3.772v13.147H.81V6.626zM2.6 4.98h-.027c-1.365 0-2.25-1.005-2.25-2.278 0-1.298.91-2.284 2.304-2.284 1.391 0 2.247.983 2.275 2.28 0 1.273-.884 2.282-2.302 2.282zm17.077 14.793H15.4V12.97c0-1.78-.67-2.995-2.14-2.995-1.126 0-1.752.82-2.043 1.611-.11.283-.093.678-.093 1.075v7.114H6.886s.055-12.053 0-13.148h4.238v2.063c.25-.902 1.605-2.19 3.766-2.19 2.681 0 4.787 1.893 4.787 5.964v7.311z" clip-rule="evenodd"/>
</svg>
