<svg xmlns="http://www.w3.org/2000/svg" width="45" height="28" fill="none" viewBox="0 0 45 28">
    <path fill="#490E00" fill-rule="evenodd" d="M19.667 2.109c-.587 0-1.063.472-1.063 1.054v.645h8.618v-.645c0-.582-.476-1.054-1.063-1.054h-6.492zm-3.188 1.054v.646c-6.372.094-11.51 5.25-11.51 11.597v3.632H2.127c-1.445 0-2.469 1.401-2.019 2.764l1.565 4.745c.286.867 1.1 1.453 2.02 1.453h37.417c.89 0 1.685-.55 1.993-1.379l1.765-4.744c.512-1.377-.515-2.84-1.994-2.84h-2.017v-3.631c0-6.347-5.137-11.503-11.51-11.597v-.646C29.347 1.416 27.92 0 26.16 0h-6.492c-1.76 0-3.188 1.416-3.188 3.163zM7.095 15.406c0-5.241 4.28-9.49 9.561-9.49H29.17c5.28 0 9.561 4.249 9.561 9.49v3.632H7.094v-3.632zm-2.125 5.74H2.126l1.565 4.745H41.11l1.764-4.745H4.97z" clip-rule="evenodd"/>
</svg>
