<svg xmlns="http://www.w3.org/2000/svg" width="32" height="20" fill="none" viewBox="0 0 32 20"><path fill="#fff" fill-rule="evenodd" d="M2 0C.895 0 0 .895 0 2v16c0 1.105.895 2 2 2h28c1.105 0 2-.895 2-2V2c0-1.105-.895-2-2-2H2zm11.608 7.548c-.182-.224-.616-.7-1.694-.7-2.226 0-2.548 2.198-2.548 3.346 0 2.24 1.162 3.248 2.576 3.248.91 0 1.554-.42 1.89-.952.032-.053.061-.108.091-.163.05-.091.1-.184.161-.271.112-.168.322-.392.728-.392.49 0 1.12.336 1.12 1.022 0 .098-.014.28-.098.518-.154.378-.462.756-.77 1.022-1.036.91-2.212 1.05-3.136 1.05-1.456 0-2.17-.378-2.59-.63C8.134 13.932 7 12.434 7 10.11 7 7.296 8.764 5 11.872 5c.77 0 1.484.14 2.016.35.812.322 1.82 1.106 1.82 1.904 0 .644-.56 1.036-1.022 1.036-.415 0-.666-.287-.766-.402l-.004-.004c-.056-.056-.105-.112-.154-.168-.049-.056-.098-.112-.154-.168zm9.94 0c-.182-.224-.616-.7-1.694-.7-2.226 0-2.549 2.198-2.549 3.346 0 2.24 1.163 3.248 2.576 3.248.91 0 1.555-.42 1.89-.952.032-.053.062-.108.092-.163.05-.091.1-.184.16-.271.113-.168.323-.392.729-.392.49 0 1.12.336 1.12 1.022 0 .098-.014.28-.099.518-.154.378-.462.756-.77 1.022-1.035.91-2.212 1.05-3.136 1.05-1.456 0-2.17-.378-2.59-.63-1.204-.714-2.338-2.212-2.338-4.536 0-2.814 1.764-5.11 4.872-5.11.77 0 1.485.14 2.017.35.812.322 1.82 1.106 1.82 1.904 0 .644-.56 1.036-1.023 1.036-.415 0-.666-.287-.766-.402l-.004-.004c-.056-.056-.105-.112-.154-.168-.049-.056-.098-.112-.154-.168z" clip-rule="evenodd"/></svg>