<svg xmlns="http://www.w3.org/2000/svg" width="425" height="15" fill="none" viewBox="0 0 425 15">
    <path fill="#EAAA00" fill-rule="evenodd" d="M100.004 12.542L87.502 0l-12.5 12.542L62.502 0 50 12.542 37.501 0l-12.5 12.542L12.498 0 0 12.542V15h125v-2.458L112.501 0l-12.497 12.542zM225.004 12.542L212.502 0l-12.5 12.542L187.501 0 175 12.542 162.501 0 150 12.542 137.499 0 125 12.542V15h125v-2.458L237.501 0l-12.497 12.542zM400.004 12.542L387.502 0l-12.5 12.542L362.501 0 350 12.542 337.501 0 325 12.542 312.499 0 300 12.542V15h125v-2.458L412.501 0l-12.497 12.542z" clip-rule="evenodd"/>
    <path fill="#EAAA00" fill-rule="evenodd" d="M350.004 12.542L337.502 0l-12.5 12.542L312.501 0 300 12.542 287.501 0 275 12.542 262.499 0 250 12.542V15h125v-2.458L362.501 0l-12.497 12.542z" clip-rule="evenodd"/>
</svg>
